<svg id="flag" xmlns="http://www.w3.org/2000/svg" style="height: 222.667px;"><rect width="334" height="222.667" x="0" y="0" fill="rgb(198, 12, 12)"></rect><rect width="334" height="148.44466666666665" x="0" y="74.22233333333332" fill="rgb(100, 0, 0)"></rect><rect width="334" height="74.22233333333332" x="0" y="148.44466666666665" fill="rgb(166, 0, 0)"></rect><polygon points="83.5,0 0,0 0,55.66675 250.5,222.667 334,222.667 334,167.00025 83.5,0" fill="rgb(141, 129, 123)"></polygon><polygon points="55.666666666666664,0 0,0 0,37.11116666666667 278.3333333333333,222.667 334,222.667 334,185.55583333333334 55.666666666666664,0" fill="rgb(71, 71, 71)"></polygon><g transform="translate(222.66666666666666,111.3335) rotate(0) scale(0.537842190016103)"><path d="m -99.913278,-130.6551 201.180888,-0.54666 c 0,0 0.41114,60.801139 -1.06377,127.2427789 C 98.280472,82.686289 23.081262,132.47878 0.6771725,131.19807 -25.446228,129.72547 -97.373478,77.864309 -100.42739,-2.9874312 -102.67845,-62.584321 -99.913278,-130.6551 -99.913278,-130.6551 z" fill="rgb(0, 0, 0)"></path></g><g transform="translate(222.66666666666666,111.3335) rotate(0) scale(0.48405797101449277)"><path d="m -99.913278,-130.6551 201.180888,-0.54666 c 0,0 0.41114,60.801139 -1.06377,127.2427789 C 98.280472,82.686289 23.081262,132.47878 0.6771725,131.19807 -25.446228,129.72547 -97.373478,77.864309 -100.42739,-2.9874312 -102.67845,-62.584321 -99.913278,-130.6551 -99.913278,-130.6551 z" fill="rgb(122, 123, 123)"></path></g><g transform="translate(55.666666666666664,200.40030000000002) rotate(0) scale(0.26957223567393057)"><path d="m -66.2375,-79.17525 c -0.33817,0.03065 -8.075646,11.066486 -17.21875,24.5 -9.143104,13.433514 -16.99594,24.886461 -17.46875,25.46875 -0.47281,0.578884 -1.76969,2.478693 -2.875,4.21875 -1.10844,1.740057 -2.2557,3.376421 -2.53125,3.625 -0.26928,0.24858 -1.38529,1.884942 -2.5,3.625 -1.11471,1.740057 -2.48016,3.754261 -3.03125,4.5 -2.65526,3.585676 -24.375,35.495816 -24.375,35.8125 0,0.197502 19.62122,0.34375 43.625,0.34375 l 43.65625,0 0,-29.59375 2.90625,-2.4375 2.9375,-2.4375 2.90625,1.9375 2.875,1.96875 0,41.4375 -103.90625,0 0,-14.46875 c 0,-7.954547 -0.30862,-14.46875 -0.6875,-14.46875 -0.85482,0 -5.45167,6.191664 -6.1875,8.34375 -0.29747,0.868326 -2.2833,2.91378 -4.40625,4.53125 -2.12608,1.61747 -4.43301,3.368228 -5.125,3.90625 -1.12413,0.871731 -1.10857,1.239725 0.0625,3.1875 0.7233,1.202035 1.91109,3.699856 2.625,5.5625 l 1.28125,3.40625 -8.3125,0 c -6.81662,0 -8.3125,-0.240465 -8.3125,-1.34375 0,-2.090793 -4.17256,-12.91775 -5.40625,-14.03125 -0.86421,-0.779791 -1.60895,0.0013 -3.40625,3.59375 -1.77226,3.538003 -3.13827,4.981067 -5.90625,6.3125 -1.97579,0.950051 -3.59375,2.354821 -3.59375,3.09375 0,0.738928 1.25949,2.777572 2.78125,4.53125 7.75598,8.94546 5.55674,23.034712 -4.15625,26.5625 -2.63334,0.953456 -10.04573,-0.449077 -13.78125,-2.625 -2.50496,-1.457426 -1.66676,0.594275 2.0625,5.03125 1.9704,2.342866 4.98194,4.781 6.84375,5.53125 l 0.0312,0 c 4.79439,1.893398 12.93712,1.151076 16.5625,-1.5 3.8232,-2.846747 6.66531,-7.88753 8.40625,-14.875 l 1.46875,-5.84375 144.375,0 0,-60.28125 -8.53125,-7.0625 c -4.687406,-3.878523 -9.095456,-7.229782 -9.8125,-7.4375 -1.152282,-0.333709 -17.681269,12.252179 -19.25,14.65625 -0.335039,0.514185 -0.6187,5.282242 -0.625,10.625 l -0.03125,9.71875 -25,0 c -13.75223,0 -24.87218,-0.3237468 -24.71875,-0.71875 0.15343,-0.3950032 10.37556,-15.40576 22.71875,-33.375 18.777806,-27.336946 22.793434,-32.69211 24.53125,-32.75 3.672898,-0.122587 4.484003,-1.2392 3.09375,-4.21875 -1.086527,-2.329156 -2.159785,-6.558645 -3.53125,-14.125 -0.247365,-1.365485 -0.727462,-2.46815 -1.0625,-2.4375 z m 174.75,0.78125 c -0.13959,0.006 -0.28838,0.0081 -0.4375,0.03125 -1.36207,0.214528 -1.7034,0.853517 -1.5625,2.9375 0.15969,2.431312 4.39602,10.071022 6.40625,11.5625 1.8161,1.36208 1.97173,-0.435514 0.46875,-6.15625 -1.7202,-6.547561 -2.78121,-8.465584 -4.875,-8.375 z m 49.0625,7 c -0.59238,0.0035 -1.37289,1.279416 -2.4375,2.90625 -0.98946,1.511909 -4.39059,5.023641 -7.5625,7.8125 -3.1719,2.788859 -5.78125,5.55353 -5.78125,6.15625 0,0.60272 0.94773,1.979647 2.09375,3.0625 l 2.09375,1.96875 0,82.59375 -11.6875,0 0,-40.3125 c 0,-22.181473 -0.30862,-40.55711 -0.6875,-40.8125 -0.37887,-0.25539 -3.11604,2.188939 -6.0625,5.4375 -2.94959,3.248561 -6.56892,6.738655 -8.0625,7.75 -2.48304,1.685574 -3.80996,5.3125 -1.9375,5.3125 0.42584,0 1.37357,0.654304 2.09375,1.4375 1.13975,1.239493 1.3125,5.358065 1.3125,31.3125 l 0,29.875 -11.6875,0 0,-29.03125 c 0,-15.970388 -0.29929,-29.03125 -0.65625,-29.03125 -0.35695,0 -3.06288,2.665103 -6.03125,5.9375 -2.96838,3.272397 -6.63455,6.769906 -8.125,7.78125 -3.04666,2.066957 -3.54561,4.912924 -1.03125,5.78125 2.09477,0.725307 2.66627,3.179988 2.34375,10.03125 L 95.48125,9.981 91.23125,9.6685 C 85.548118,9.2700916 80.631795,10.830198 77.2,14.106 c -4.458829,4.2565 -5.689763,8.753169 -6.125,21.96875 l 0.125,-0.03125 -0.53125,11.59375 88.65625,0 0,-59.4375 c 0,-48.123137 0.0272,-59.604285 -1.75,-59.59375 z m -25.8125,6.53125 c -0.49277,-0.08853 -0.83317,0.340316 -0.65625,1.3125 0.2912,1.593633 -2.61558,6.579176 -4.21875,7.25 -0.61998,0.258795 -2.9331,-0.23564 -5.15625,-1.09375 l -4.0625,-1.53125 -2.90625,3.25 c -3.30655,3.708262 -6.9445,4.794404 -12.875,3.875 -3.30028,-0.514186 -3.75179,-0.416992 -2.84375,0.625 0.5918,0.68104 2.30959,1.726806 3.78125,2.3125 5.32304,2.111224 10.86781,1.117918 14.5,-2.59375 1.62509,-1.654928 2.23015,-1.739921 5.9375,-0.875 3.01847,0.701471 4.82443,0.67242 6.6875,-0.09375 3.8044,-1.562987 5.46019,-6.673372 3.46875,-10.71875 -0.50725,-1.030073 -1.16348,-1.630215 -1.65625,-1.71875 z m 37.75,17.5625 c -0.0437,0.0051 -0.0626,0.04164 -0.0937,0.0625 -0.6325,0.42565 -0.90625,14.808095 -0.90625,47.75 l 0,47.15625 16.46875,-0.25 16.46875,-0.25 0.53125,-5 c 0.28494,-2.744591 1.16403,-6.733129 1.96875,-8.875 0.80472,-2.14187 1.28175,-4.133834 1.03125,-4.40625 -0.25049,-0.272416 -1.90591,0.58443 -3.65625,1.875 -2.88384,2.131656 -3.91974,2.34375 -11.3125,2.34375 l -8.15625,0 0,-29.4375 c 0,-31.314219 -0.10814,-30.442305 4,-33.15625 1.23056,-0.813842 0.82977,-1.507082 -3.15625,-5.21875 -2.52374,-2.349588 -6.35826,-6.277222 -8.5,-8.71875 -2.00495,-2.288933 -4.03207,-3.95173 -4.6875,-3.875 z m -183.375,0.96875 c -0.04345,0.0052 -0.09408,0.01039 -0.125,0.03125 -0.629371,0.42565 -0.90625,14.777838 -0.90625,47.59375 l 0,46.96875 16.40625,-0.25 16.4375,-0.25 0.5,-4.96875 c 0.281808,-2.734376 1.123512,-6.544812 1.875,-8.46875 2.007099,-5.158878 1.742404,-5.490797 -2.3125,-2.90625 -3.265842,2.083982 -4.592263,2.34375 -11.65625,2.34375 l -7.9375,0 0,-29.3125 c 0,-31.195037 -0.123728,-30.358771 3.96875,-33.0625 1.2243,-0.810438 0.814111,-1.489453 -3.15625,-5.1875 -2.5174852,-2.339372 -6.3051528,-6.224938 -8.4375,-8.65625 -1.999076,-2.279356 -4.004466,-3.952515 -4.65625,-3.875 z m 106.46875,67.625 3.28125,0 0,5.90625 0,5.90625 -11.6875,0 0,-3.09375 c 0,-4.542537 4.013172,-8.71875 8.40625,-8.71875 z M -154.05,56.38725 l -5.21875,5.625 -5.25,5.625 5.1875,5.6875 5.1875,5.65625 5.21875,-5.625 5.21875,-5.625 -5.1875,-5.65625 -5.15625,-5.6875 z" fill="rgb(0, 101, 189)"></path></g><g transform="translate(222.66666666666666,100.20015000000001) rotate(0) scale(0.46114398422090724)"><path d="m -26.466548,-80.459037 c -5.52,2.53 -9.89,6.21 -9.89,8.05 0,2.07 3.22,2.07 -0.92,3.45 -3.91,1.38 -14.49,3.22 -21.85,2.99 -2.53,0 -8.51,-1.61 -10.12,-1.61 -1.84,0.23 7.82,4.14 4.14,3.22 -5.06,-1.38 -8.05,-1.84 -4.14,0.69 2.99,1.84 9.66,1.84 19.09,0.69 3.68,-0.46 13.34,-2.53 16.79,-2.99 2.3,-0.23 2.3,1.84 3.68,1.84 12.42,0.69 34.5000001,0.23 44.16,-1.15 8.05,-1.15 11.04,-0.69 13.34,2.07 4.6,5.29 -0.23,9.89 -13.34,12.65 -16.0999999,3.45 -22.7699999,6.44 -28.98,13.11 -14.95,16.1 2.53,34.2699995 35.19,36.7999995 19.09,1.61 31.51,5.29 28.52,8.28 -1.15,1.1499995 -13.8,2.9900005 -28.29,4.1400005 -31.51,2.53 -45.54,6.9 -57.5,18.4 -6.67,6.44 -8.97,10.35 -8.97,15.64 0,7.36 0,7.36 -12.19,7.36 -6.44,0 -15.41,-0.92 -19.55,-2.3 -6.44,-1.61 -7.36,-1.61 -5.06,1.15 4.6,5.52 17.71,10.35 28.52,10.35 8.28,0 12.88,1.61 20.24,6.9 14.72,10.81 31.5100001,14.95 59.34,14.72 36.57,-0.23 57.5,-9.89 57.5,-26.22 0,-12.19 -13.8,-19.32 -42.55,-21.85 -14.49,-1.38 -43.0099999,0.92 -55.43,4.6 -2.3,0.69 0.23,-0.92 5.75,-3.68 6.6700001,-3.22 17.71,-5.52 32.66,-6.9 33.12,-2.76 48.07,-10.12 48.07,-23.9200005 0,-13.34 -14.72,-20.9299995 -46.23,-23.9199995 -31.0499999,-2.76 -33.3499999,-8.28 -7.13,-16.33 18.63,-5.52 28.06,-13.8 28.06,-25.07 0,-17.25 -9.43,-23 -40.9399998,-24.61 -19.0900002,-0.92 -23.6900002,-0.46 -31.9700002,3.45 z m 16.56,4.83 c -0.69,1.15 -2.53,2.3 -3.68,2.3 -1.38,0 -1.61,-1.15 -0.92,-2.3 0.69,-1.38 2.53,-2.3 3.68,-2.3 1.38,0 1.61,0.92 0.92,2.3 z m 66.47,128.8 c 4.37,1.61 5.98,3.22 4.6,4.6 -3.91,3.91 -29.21,7.36 -44.62,6.21 -17.0199999,-1.61 -35.42,-7.13 -29.9,-9.43 15.4100001,-5.98 55.89,-6.67 69.92,-1.38 z" fill="rgb(0, 101, 189)"></path></g></svg>