<svg id="flag" xmlns="http://www.w3.org/2000/svg" style="height: 222.667px;"><rect width="334" height="222.667" x="0" y="0" fill="rgb(96, 15, 15)"></rect><rect width="334" height="148.44466666666665" x="0" y="74.22233333333332" fill="rgb(166, 0, 0)"></rect><rect width="334" height="74.22233333333332" x="0" y="148.44466666666665" fill="rgb(255, 0, 0)"></rect><polygon points="55.666666666666664,0 0,0 0,37.11116666666667 278.3333333333333,222.667 334,222.667 334,185.55583333333334 55.666666666666664,0" fill="rgb(71, 71, 71)"></polygon><polygon points="278.3333333333333,0 334,0 334,37.11116666666667 55.666666666666664,222.667 0,222.667 0,185.55583333333334 278.3333333333333,0" fill="rgb(71, 71, 71)"></polygon><polygon points="0,0 167,111.3335 139.16666666666666,111.3335 0,18.555583333333335" fill="rgb(122, 123, 123)"></polygon><polygon points="167,111.3335 167,92.77791666666667 306.1666666666667,0 334,0" fill="rgb(122, 123, 123)"></polygon><polygon points="167,111.3335 167,129.88908333333333 27.833333333333332,222.667 0,222.667" fill="rgb(122, 123, 123)"></polygon><polygon points="167,111.3335 194.83333333333334,111.3335 334,204.11141666666666 334,222.667" fill="rgb(122, 123, 123)"></polygon><g transform="translate(167,111.3335) rotate(0) scale(0.6454106280193237)"><path d="m -99.913278,-130.6551 201.180888,-0.54666 c 0,0 0.41114,60.801139 -1.06377,127.2427789 C 98.280472,82.686289 23.081262,132.47878 0.6771725,131.19807 -25.446228,129.72547 -97.373478,77.864309 -100.42739,-2.9874312 -102.67845,-62.584321 -99.913278,-130.6551 -99.913278,-130.6551 z" fill="rgb(71, 71, 71)"></path></g><g transform="translate(167,111.3335) rotate(0) scale(0.537842190016103)"><path d="m -99.913278,-130.6551 201.180888,-0.54666 c 0,0 0.41114,60.801139 -1.06377,127.2427789 C 98.280472,82.686289 23.081262,132.47878 0.6771725,131.19807 -25.446228,129.72547 -97.373478,77.864309 -100.42739,-2.9874312 -102.67845,-62.584321 -99.913278,-130.6551 -99.913278,-130.6551 z" fill="rgb(0, 0, 0)"></path></g><g transform="translate(167,100.20015000000001) rotate(0) scale(0.5270216962524654)"><path d="m -26.466548,-80.459037 c -5.52,2.53 -9.89,6.21 -9.89,8.05 0,2.07 3.22,2.07 -0.92,3.45 -3.91,1.38 -14.49,3.22 -21.85,2.99 -2.53,0 -8.51,-1.61 -10.12,-1.61 -1.84,0.23 7.82,4.14 4.14,3.22 -5.06,-1.38 -8.05,-1.84 -4.14,0.69 2.99,1.84 9.66,1.84 19.09,0.69 3.68,-0.46 13.34,-2.53 16.79,-2.99 2.3,-0.23 2.3,1.84 3.68,1.84 12.42,0.69 34.5000001,0.23 44.16,-1.15 8.05,-1.15 11.04,-0.69 13.34,2.07 4.6,5.29 -0.23,9.89 -13.34,12.65 -16.0999999,3.45 -22.7699999,6.44 -28.98,13.11 -14.95,16.1 2.53,34.2699995 35.19,36.7999995 19.09,1.61 31.51,5.29 28.52,8.28 -1.15,1.1499995 -13.8,2.9900005 -28.29,4.1400005 -31.51,2.53 -45.54,6.9 -57.5,18.4 -6.67,6.44 -8.97,10.35 -8.97,15.64 0,7.36 0,7.36 -12.19,7.36 -6.44,0 -15.41,-0.92 -19.55,-2.3 -6.44,-1.61 -7.36,-1.61 -5.06,1.15 4.6,5.52 17.71,10.35 28.52,10.35 8.28,0 12.88,1.61 20.24,6.9 14.72,10.81 31.5100001,14.95 59.34,14.72 36.57,-0.23 57.5,-9.89 57.5,-26.22 0,-12.19 -13.8,-19.32 -42.55,-21.85 -14.49,-1.38 -43.0099999,0.92 -55.43,4.6 -2.3,0.69 0.23,-0.92 5.75,-3.68 6.6700001,-3.22 17.71,-5.52 32.66,-6.9 33.12,-2.76 48.07,-10.12 48.07,-23.9200005 0,-13.34 -14.72,-20.9299995 -46.23,-23.9199995 -31.0499999,-2.76 -33.3499999,-8.28 -7.13,-16.33 18.63,-5.52 28.06,-13.8 28.06,-25.07 0,-17.25 -9.43,-23 -40.9399998,-24.61 -19.0900002,-0.92 -23.6900002,-0.46 -31.9700002,3.45 z m 16.56,4.83 c -0.69,1.15 -2.53,2.3 -3.68,2.3 -1.38,0 -1.61,-1.15 -0.92,-2.3 0.69,-1.38 2.53,-2.3 3.68,-2.3 1.38,0 1.61,0.92 0.92,2.3 z m 66.47,128.8 c 4.37,1.61 5.98,3.22 4.6,4.6 -3.91,3.91 -29.21,7.36 -44.62,6.21 -17.0199999,-1.61 -35.42,-7.13 -29.9,-9.43 15.4100001,-5.98 55.89,-6.67 69.92,-1.38 z" fill="rgb(0, 101, 189)"></path></g></svg>